<?xml version="1.0" encoding="UTF-8"?>
<svg id="metal_pi" data-name="metal pi" xmlns="http://www.w3.org/2000/svg" width="1000mm" height="1000mm" viewBox="0 0 2834.646 2834.646">
  <g id="Debugprobe">
    <rect id="outline" x="269.291" y="2097.638" width="2296.063" height="566.929" rx="113.386" ry="113.386" fill="#4880c1" stroke="#003270" stroke-miterlimit="10" stroke-width="11.339"/>
    <text transform="translate(357.472 2519.915)" fill="#fff" font-family="Roboto-Light, Roboto" font-size="396.85" font-weight="300"><tspan x="0" y="0">Debugp</tspan><tspan x="1342.858" y="0" letter-spacing="-.01em">r</tspan><tspan x="1472.494" y="0">obe</tspan></text>
  </g>
  <g id="Raspberry">
    <path id="background" d="M2551.183,1077.16c0,47.73-1.31,95-3.89,141.74-8.13,147.91-28.88,290.45-60.63,425.19-5.95,25.26-12.29,50.25-19.01,74.95-33.5,123.22-145.69,208.52-273.38,208.52H640.373c-127.69,0-239.88-85.3-273.38-208.52-6.71-24.7-13.05-49.69-19.01-74.95-31.75-134.74-52.5-277.28-60.63-425.19-2.58-46.74-3.89-94.01-3.89-141.74s1.31-94.99,3.88-141.73c8.14-147.91,28.89-290.45,60.64-425.2,5.96-25.26,12.29-50.25,19.01-74.94,33.5-123.22,145.69-208.52,273.38-208.52h1553.91c127.69,0,239.88,85.3,273.38,208.52,6.71,24.69,13.05,49.68,19,74.94,31.75,134.75,52.5,277.29,60.64,425.2,2.57,46.74,3.88,94,3.88,141.73Z" fill="#fff" stroke-width="0"/>
    <path id="O" d="M2547.301,935.431c-8.14-147.91-28.89-290.45-60.64-425.199-5.951-25.26-12.289-50.246-19.003-74.941-33.499-123.218-145.691-208.518-273.381-208.518H640.369c-127.69,0-239.883,85.301-273.381,208.518-6.714,24.696-13.052,49.681-19.003,74.941-31.75,134.75-52.5,277.289-60.64,425.199-2.57,46.74-3.88,94-3.88,141.73s1.31,95,3.89,141.74c8.13,147.91,28.88,290.45,60.63,425.189,5.952,25.266,12.292,50.257,19.008,74.958,33.501,123.215,145.692,208.512,273.379,208.512h1553.903c127.688,0,239.878-85.297,273.379-208.512,6.716-24.701,13.056-49.692,19.008-74.958,31.75-134.74,52.5-277.28,60.63-425.189,2.58-46.74,3.89-94.01,3.89-141.74s-1.31-94.99-3.88-141.73ZM2084.367,1644.09H750.279c-67.563,0-125.591-47.716-138.983-113.939-20.079-99.286-33.739-203.494-40.161-311.251-2.78-46.62-4.2-93.9-4.2-141.74s1.42-95.12,4.2-141.73c6.416-107.765,20.079-211.976,40.16-311.264,13.393-66.221,71.421-113.936,138.983-113.936h1334.091c67.562,0,125.589,47.715,138.983,113.936,20.081,99.288,33.745,203.499,40.16,311.264,2.78,46.61,4.2,93.9,4.2,141.73s-1.42,95.12-4.2,141.74c-6.423,107.757-20.083,211.964-40.161,311.251-13.392,66.222-71.421,113.939-138.983,113.939Z" fill="#4880c1" stroke-width="0"/>
    <path id="C" d="M2117.918,1218.896c-5.832,24.757-13.15,48.46-21.795,70.867h-439.775c-31.923,0-59.971-21.325-68.345-52.13-1.679-6.174-3.263-12.422-4.751-18.737-7.937-33.685-13.125-69.32-15.157-106.297-.645-11.685-.973-23.502-.973-35.435s.328-23.747.97-35.432c2.035-36.977,7.223-72.612,15.16-106.3,1.488-6.315,3.072-12.561,4.751-18.735,8.375-30.804,36.423-52.13,68.345-52.13h439.778c8.643,22.407,15.96,46.11,21.792,70.865h-434.096c-16.89,0-31.397,11.929-34.746,28.484-5.02,24.822-8.436,50.875-10.04,77.816-.695,11.652-1.05,23.475-1.05,35.432s.355,23.78,1.05,35.435c1.606,26.939,5.021,52.991,10.04,77.813,3.348,16.556,17.855,28.485,34.746,28.485h434.096Z" fill="#003270" stroke-width="0"/>
    <path id="C-2" data-name="C" d="M1592.855,1313.384c-9.721,41.262-21.917,80.766-36.325,118.112h-732.959c-53.205,0-99.952-35.542-113.909-86.883-2.798-10.291-5.439-20.703-7.918-31.229-13.229-56.142-21.875-115.533-25.262-177.162-1.075-19.475-1.621-39.171-1.621-59.058s.546-39.579,1.617-59.054c3.392-61.629,12.038-121.021,25.267-177.166,2.48-10.525,5.121-20.936,7.918-31.226,13.958-51.341,60.704-86.883,113.909-86.883h732.964c14.404,37.346,26.6,76.85,36.321,118.108h-723.493c-28.151,0-52.329,19.881-57.91,47.473-8.367,41.37-14.06,84.791-16.733,129.693-1.158,19.421-1.75,39.125-1.75,59.054s.592,39.633,1.75,59.058c2.676,44.899,8.368,88.318,16.734,129.688,5.58,27.593,29.759,47.474,57.91,47.474h723.493Z" fill="#003270" stroke-width="0"/>
  </g>
</svg>