<svg id="metal_pi" data-name="metal pi" xmlns="http://www.w3.org/2000/svg" viewBox="0 0 2834.65 2834.65"><defs><style>.cls-1{fill:#fff;stroke:#c31c4a;stroke-width:30px;}.cls-1,.cls-2,.cls-3,.cls-4{stroke-miterlimit:10;}.cls-2,.cls-3,.cls-4{stroke:#000;}.cls-3{fill:#6cc04a;}.cls-4{fill:#c51a4a;}</style></defs><g id="Picoprobe"><rect id="outline" class="cls-1" x="269.29" y="2097.64" width="2296.06" height="566.93" rx="113.39"/><path d="M437.17,2382.38v137.53H408.64V2182.22h115q52.65,0,83.15,26.9t30.5,74q0,47.55-29.34,73.41t-85,25.86Zm0-24.12h86.51q41.52,0,63.32-19.75t21.8-55.05q0-35.07-21.68-55.86t-61.58-21.26H437.17Z"/><path d="M693,2196.48a18.58,18.58,0,0,1,5.11-13.25q5.1-5.42,13.91-5.42t14,5.42a18.38,18.38,0,0,1,5.22,13.25,18,18,0,0,1-5.22,13.14q-5.2,5.31-14,5.3t-13.91-5.3A18.17,18.17,0,0,1,693,2196.48Zm32.71,323.43H697.86V2269H725.7Z"/><path d="M893.85,2501.13q29,0,48.59-16.35t21.22-42.33h26.67A78.47,78.47,0,0,1,976,2484.31a90,90,0,0,1-35.13,29.57,105.83,105.83,0,0,1-47,10.67q-49.41,0-78.28-34.32t-28.87-92.31v-8.35q0-37.11,13-65.64t37.23-44.07q24.23-15.53,56.71-15.54,41.28,0,68.07,24.59t28.64,64.71H963.66q-1.86-29.46-21.22-47.55T893.62,2288q-37.57,0-58.33,27.14t-20.76,76.07v8.12q0,48,20.76,74.91T893.85,2501.13Z"/><path d="M1030.46,2390.73q0-36.18,14-65.18t39.66-45.11q25.62-16.11,58.1-16.12,50.1,0,81.18,35.14t31.08,93.12v5.8q0,36.42-14,65.52t-39.54,44.88q-25.52,15.78-58.22,15.77-49.86,0-81.06-35.13t-31.19-93.13Zm27.83,7.65q0,45,23.31,73.87t61.11,28.88q37.57,0,60.89-28.88t23.31-76.19v-5.33q0-28.76-10.67-52.65t-29.92-37q-19.26-13.11-44.07-13.11-37.11,0-60.54,29.11t-23.42,76.19Z"/><path d="M1513.58,2397q0,58.68-26,93.12T1418,2524.55q-51.49,0-78.86-36.18v128h-27.6V2269h25.75l1.39,35.49q27.13-40.12,78.62-40.13,45,0,70.63,34.1t25.63,94.63Zm-27.84-4.87q0-48-19.71-75.84t-55-27.83q-25.51,0-43.83,12.29t-28.07,35.72v120.37q10,21.57,28.53,32.93t43.83,11.37q35,0,54.62-28T1485.74,2392.12Z"/><path d="M1691,2292.62a103.83,103.83,0,0,0-18.78-1.62q-26,0-44,14.49t-25.63,42.1v172.32H1575V2269h27.13l.47,39.9q22-44.54,70.74-44.54,11.59,0,18.32,3Z"/><path d="M1714.89,2390.73q0-36.18,14-65.18t39.66-45.11q25.62-16.11,58.1-16.12,50.08,0,81.17,35.14t31.08,93.12v5.8q0,36.42-14,65.52t-39.55,44.88q-25.52,15.78-58.21,15.77-49.87,0-81.06-35.13t-31.2-93.13Zm27.84,7.65q0,45,23.31,73.87t61.11,28.88q37.57,0,60.88-28.88t23.31-76.19v-5.33q0-28.76-10.67-52.65t-29.92-37q-19.24-13.11-44.06-13.11-37.12,0-60.54,29.11t-23.42,76.19Z"/><path d="M2198.24,2397q0,58.68-26,93.12t-69.82,34.44q-52.41,0-79.32-39l-1.16,34.32h-26V2163.66h27.6v141.72q26.43-41.05,78.39-41.06,44.53,0,70.39,34t25.86,94.52Zm-27.83-4.87q0-49.63-19.25-76.65t-54.27-27q-26.67,0-45.23,13.1t-28.06,38.38v113.19q20.87,47.31,73.75,47.31,34.32,0,53.69-27.13T2170.41,2392.12Z"/><path d="M2356.65,2524.55q-32,0-57.86-15.77t-40.24-44q-14.39-28.18-14.38-63.2v-10q0-36.19,14-65.18t39.08-45.57a96.38,96.38,0,0,1,54.27-16.59q45.69,0,72.48,31.2t26.79,85.23v15.54H2271.77v5.34q0,42.67,24.47,71.09t61.57,28.41q22.28,0,39.32-8.12t31-26l17.39,13.22Q2414.87,2524.56,2356.65,2524.55Zm-5.1-236.57q-31.31,0-52.76,23t-26.1,61.7h150.53v-3q-1.17-36.18-20.64-58.91T2351.55,2288Z"/></g><g id="Raspberry"><path id="plate" class="cls-2" d="M1086.51,141.75c-9.29.3-19.31,3.76-30.74,12.68-27.87-10.76-54.93-14.45-79.11,7.37-37.31-4.86-49.47,5.16-58.61,16.81-8.26-.07-61.34-8.33-85.75,28-61.19-7.23-80.58,36-58.61,76.38-12.53,19.39-25.44,38.49,3.76,75.35-10.32,20.57-3.91,42.83,20.42,69.82-6.41,28.9,6.19,49.25,28.9,65.17-4.27,39.52,36.28,62.52,48.37,70.71,4.64,23,14.3,44.75,60.6,56.77,7.67,34.35,35.46,40.25,62.37,47.48C909.13,720.06,832.82,788,833.33,955l-13.05,23.22c-102,62.08-193.82,261.44-50.28,423.56,9.37,50.73,25.07,87.15,39.08,127.47,20.94,162.5,157.63,238.66,193.68,247.65,52.79,40.26,109,78.37,185.2,105.14,71.74,74,149.52,102.18,227.67,102.18,1.18,0,159.39-28.16,231.13-102.18,76.09-26.77,132.34-64.88,185.2-105.14,36-9,172.67-85.08,193.61-247.65,14-40.32,29.71-76.74,39.07-127.47,143.55-162.12,51.76-361.55-50.28-423.56l-13-23.22c.52-166.92-75.79-235-164.78-286.72,26.91-7.23,54.71-13.13,62.38-47.48,46.22-12,55.95-33.77,60.6-56.77,12.09-8.19,52.57-31.19,48.36-70.71,22.64-15.85,35.32-36.27,28.9-65.17,24.41-27,30.75-49.25,20.43-69.82,29.27-36.86,16.29-56,3.76-75.35,21.89-40.33,2.58-83.61-58.69-76.38-24.33-36.35-77.49-28.09-85.67-27.94C1907.38,167,1895.29,157,1858,161.88c-24.19-21.9-51.24-18.14-79.11-7.38-33.11-26.09-55-5.16-80.07,2.73-40.11-13.12-49.25,4.87-68.93,12.17-43.72-9.22-57,10.84-77.93,32.07l-24.41-.52c-65.91,38.86-98.72,118-110.29,158.66C1405.67,318.92,1372.94,239.81,1307,201l-24.33.52c-21-21.23-34.28-41.36-78-32.07-19.69-7.37-28.83-25.29-68.94-12.17-16.44-5.23-31.55-16-49.25-15.48"/><path id="leaves" class="cls-3" d="M955.2,312.72c175,90.17,276.63,163.16,332.36,225.24C1259,652.31,1110.18,657.54,1055.77,654.3c11.13-5.16,20.42-11.43,23.74-20.94-13.64-9.73-62.08-1-95.85-20,13-2.73,19.1-5.31,25.14-14.89-31.92-10.18-66.35-19-86.55-35.83,10.91.14,21.08,2.43,35.39-7.45C929,539.8,898.51,527.56,874.77,504c14.82-.37,30.74-.14,35.39-5.6-26.18-16.22-48.29-34.28-66.58-54,20.72,2.51,29.42.37,34.43-3.24-19.76-20.28-44.82-37.38-56.77-62.37,15.34,5.3,29.42,7.29,39.59-.45-6.7-15.19-35.53-24.11-52.12-59.57,16.15,1.55,33.32,3.54,36.79,0-7.52-30.6-20.42-47.77-33-65.62,34.65-.51,87.07.15,84.71-2.8L875.8,228.53c33.84-9.15,68.42,1.47,93.56,9.29,11.28-8.92-.22-20.13-13.93-31.63a342.44,342.44,0,0,1,78.22,19.53c12.53-11.35-8.11-22.63-18.14-34,44.39,8.4,63.19,20.27,81.91,32.14,13.57-13,.81-24-8.4-35.39,33.47,12.39,50.72,28.39,68.86,44.24,6.12-8.33,15.63-14.38,4.2-34.43,23.74,13.71,41.66,29.86,54.93,47.92,14.74-9.36,8.77-22.19,8.84-34,24.7,20.13,40.41,41.51,59.58,62.38,3.83-2.81,7.22-12.39,10.24-27.43,58.91,57.21,142.22,201.2,21.38,258.34-103-84.94-225.82-146.57-361.85-192.8h0m928.15,0C1708.47,402.89,1606.73,475.88,1551.06,538c28.54,114.35,177.39,119.58,231.8,116.34-11.13-5.16-20.42-11.43-23.74-20.94,13.64-9.73,62.08-1,95.84-20-13-2.73-19-5.31-25.14-14.89,31.93-10.18,66.36-19,86.56-35.83-10.91.14-21.09,2.43-35.39-7.45,28.61-15.41,59.13-27.65,82.87-51.17-14.82-.37-30.75-.14-35.39-5.6,26.17-16.22,48.29-34.28,66.57-54-20.71,2.51-29.41.37-34.43-3.24,19.76-20.28,44.83-37.38,56.77-62.37-15.33,5.3-29.41,7.29-39.59-.45,6.71-15.19,35.54-24.11,52.13-59.57-16.15,1.55-33.33,3.54-36.79,0,7.52-30.6,20.42-47.77,33-65.62-34.65-.51-87.07.15-84.71-2.8l21.38-21.89c-33.84-9.07-68.42,1.47-93.56,9.29-11.28-8.92.22-20.13,13.93-31.63A342.44,342.44,0,0,0,1805,225.72c-12.54-11.35,8.11-22.63,18.13-34-44.38,8.4-63.18,20.27-81.91,32.14-13.56-13-.73-24,8.41-35.39-33.47,12.39-50.73,28.39-68.86,44.24-6.19-8.33-15.63-14.38-4.2-34.43-23.74,13.71-41.66,29.86-54.93,47.92-14.75-9.36-8.77-22.19-8.85-34-24.7,20.13-40.4,41.51-59.57,62.38-3.83-2.81-7.22-12.39-10.25-27.5-58.9,57.21-142.22,201.2-21.38,258.33,102.92-84.86,225.68-146.49,361.78-192.72h0"/><path id="berries" class="cls-4" d="M1631.13,1477.09c1.4,252.88-419.05,252.85-419.06-.08s418.35-252.82,419.06.08M1300.32,925.17c207.27,135.83-38.13,505.27-244.48,370-207.24-135.9,38.1-505.15,244.48-370m234.38-10.25c-207.28,135.78,38.09,505.24,244.47,370,207.26-135.84-38.12-505.3-244.47-370M866.44,1018.21c91.83-24.64,22.2,291.67-2.4,328.86-44.68,67.57-89.58-29-101.53-73.23-26.91-99.49,13.82-204.21,103.93-255.63m1083.19-5.16c-91.91-24.64-22.22,291.65,2.39,328.86,44.68,67.57,89.61-29,101.57-73.23,26.91-99.5-13.86-204.22-104-255.63M1631.2,705.54c103.31-17.42,215.12,18.21,264.8,116,11,21.74,47.08,116.71,23,135.51-12.45,9.71-37.85-7.35-48.28-13-62.8-34.23-119.55-85.51-170.7-134.87-6.29-6.07-97.78-98.72-68.79-103.59m-446.93-5.16c-103.32-17.47-215.12,18.19-264.8,116-11,21.74-47.07,116.72-23,135.53,12.45,9.72,37.83-7.32,48.27-13,62.79-34.22,119.53-85.52,170.68-134.88,6.29-6.07,97.76-98.74,68.81-103.61m232.32-40.92C1358.27,658,1230.42,699,1227.18,774.1c-3.56,82.51,132.66,106.36,190.07,107.13,58.88.79,183.54-12.78,190.24-92.1,7-83.11-127.3-130.33-190.9-129.67m5.89,1071.91c43.65-1.91,213.83,7.2,194.44,82-19.72,76.08-149.86,117.38-216.37,113.47-49.17-2.88-186.13-47.34-188.09-113.6-2.09-70.55,164.36-83,210-81.87m-310.9-242c39.59,47.67,99.93,173.17,44.49,229.81-51.15,52.26-154.24,1.82-197.7-34.76C894.07,1630.26,827.54,1498.86,880,1416c56.9-89.79,189.94,25,231.55,73.29m609.87-22.93c-44.2,51.73-113.61,186.58-59.87,252.08,54.09,65.92,173.9,3.18,219.73-39,74.29-68.35,107.66-175.55,70-272.31-47.28-121.31-181.74,4.93-229.81,59.22"/></g></svg>